# xmcd
#
# Track frame offsets:
#  183
#  60933
#  110133
#  128433
#  161058
#  182733
#
# Disc length: 2811 seconds
#
# Revision: 1
# Processed by: cddbd v1.5.2PL0 Copyright (c) Steve Scherf et al.
# Submitted via: Collectorz.com_Music_Collector 6.11
#
DISCID=480af906
DTITLE=John Mayall and The Bluesbreakers - The Diary Of A Band - Volume Two
DYEAR=1968
DGENRE=
TTITLE0=Gimme Some Lovin' - Spoken Introduction Into The Train
TTITLE1=Crying Shame
TTITLE2=Local Boy Makes Good! (Speech Only-Impromptu)
TTITLE3=Help Me
TTITLE4=Blues In B^b
TTITLE5=Soul Of A Short Fat Man
EXTD=
EXTT0=
EXTT1=
EXTT2=
EXTT3=
EXTT4=
EXTT5=
PLAYORDER=
